<svg width="881" height="359" viewBox="0 0 881 359" fill="none" xmlns="http://www.w3.org/2000/svg">
<path d="M435.254 116.124H435.458L460.652 47.1721H465.14L437.906 120H432.704L405.572 47.1721H410.264L435.254 116.124ZM474.211 57.6781V47.1721H478.087V57.6781H474.211ZM474.211 120V67.5721H478.087V120H474.211ZM497.958 102.558C498.094 105.006 498.638 107.182 499.59 109.086C500.542 110.922 501.766 112.52 503.262 113.88C504.826 115.172 506.628 116.158 508.668 116.838C510.708 117.518 512.918 117.858 515.298 117.858C516.998 117.858 518.8 117.722 520.704 117.45C522.676 117.11 524.478 116.532 526.11 115.716C527.81 114.9 529.204 113.778 530.292 112.35C531.38 110.854 531.924 108.984 531.924 106.74C531.924 103.816 531.04 101.606 529.272 100.11C527.504 98.6141 525.26 97.4581 522.54 96.6421C519.888 95.8261 516.998 95.1801 513.87 94.7041C510.81 94.1601 507.92 93.3781 505.2 92.3581C502.548 91.3381 500.338 89.9101 498.57 88.0741C496.802 86.1701 495.918 83.4161 495.918 79.8121C495.918 77.2281 496.496 75.0861 497.652 73.3861C498.808 71.6181 500.27 70.2241 502.038 69.2041C503.874 68.1841 505.914 67.4701 508.158 67.0621C510.402 66.5861 512.646 66.3481 514.89 66.3481C517.61 66.3481 520.16 66.6541 522.54 67.2661C524.92 67.8781 526.96 68.8641 528.66 70.2241C530.428 71.5841 531.788 73.3181 532.74 75.4261C533.76 77.5341 534.27 80.0841 534.27 83.0761H530.394C530.394 80.6961 529.986 78.6561 529.17 76.9561C528.422 75.2561 527.334 73.8961 525.906 72.8761C524.546 71.7881 522.914 71.0061 521.01 70.5301C519.106 69.9861 517.066 69.7141 514.89 69.7141C513.122 69.7141 511.32 69.8841 509.484 70.2241C507.716 70.5641 506.118 71.1421 504.69 71.9581C503.262 72.7741 502.072 73.8281 501.12 75.1201C500.236 76.4121 499.794 77.9761 499.794 79.8121C499.794 81.9201 500.304 83.6201 501.324 84.9121C502.344 86.2041 503.67 87.2581 505.302 88.0741C507.002 88.8221 508.872 89.4341 510.912 89.9101C513.02 90.3861 515.128 90.8621 517.236 91.3381C519.82 91.8141 522.234 92.3921 524.478 93.0721C526.79 93.6841 528.762 94.5681 530.394 95.7241C532.094 96.8121 533.42 98.2401 534.372 100.008C535.324 101.776 535.8 104.02 535.8 106.74C535.8 109.596 535.154 111.942 533.862 113.778C532.57 115.614 530.938 117.11 528.966 118.266C526.994 119.354 524.784 120.102 522.336 120.51C519.956 120.986 517.61 121.224 515.298 121.224C512.306 121.224 509.518 120.816 506.934 120C504.418 119.252 502.208 118.096 500.304 116.532C498.4 114.9 496.904 112.928 495.816 110.616C494.728 108.304 494.15 105.618 494.082 102.558H497.958ZM592.439 120H588.563V108.78H588.359C587.679 110.752 586.693 112.52 585.401 114.084C584.177 115.58 582.715 116.872 581.015 117.96C579.383 119.048 577.581 119.864 575.609 120.408C573.637 120.952 571.631 121.224 569.591 121.224C566.531 121.224 563.913 120.85 561.737 120.102C559.629 119.354 557.895 118.368 556.535 117.144C555.175 115.92 554.087 114.56 553.271 113.064C552.523 111.5 551.979 109.936 551.639 108.372C551.299 106.808 551.095 105.312 551.027 103.884C550.959 102.388 550.925 101.096 550.925 100.008V67.5721H554.801V100.722C554.801 102.082 554.903 103.748 555.107 105.72C555.311 107.624 555.889 109.494 556.841 111.33C557.861 113.098 559.357 114.628 561.329 115.92C563.301 117.212 566.089 117.858 569.693 117.858C572.617 117.858 575.235 117.314 577.547 116.226C579.927 115.138 581.933 113.642 583.565 111.738C585.197 109.766 586.421 107.454 587.237 104.802C588.121 102.082 588.563 99.1241 588.563 95.9281V67.5721H592.439V120ZM644.296 109.596H644.092C643.48 111.16 642.596 112.656 641.44 114.084C640.284 115.444 638.856 116.668 637.156 117.756C635.524 118.844 633.654 119.694 631.546 120.306C629.438 120.918 627.126 121.224 624.61 121.224C619.034 121.224 614.716 120.034 611.656 117.654C608.596 115.206 607.066 111.466 607.066 106.434C607.066 103.374 607.678 100.892 608.902 98.9881C610.126 97.0161 611.656 95.4861 613.492 94.3981C615.396 93.2421 617.47 92.4261 619.714 91.9501C622.026 91.4741 624.236 91.1341 626.344 90.9301L632.362 90.4201C635.15 90.2161 637.326 89.9101 638.89 89.5021C640.522 89.0261 641.746 88.4141 642.562 87.6661C643.378 86.8501 643.888 85.8301 644.092 84.6061C644.296 83.3821 644.398 81.8521 644.398 80.0161C644.398 78.5881 644.126 77.2621 643.582 76.0381C643.038 74.8141 642.188 73.7261 641.032 72.7741C639.876 71.8221 638.38 71.0741 636.544 70.5301C634.708 69.9861 632.464 69.7141 629.812 69.7141C625.12 69.7141 621.312 70.8701 618.388 73.1821C615.532 75.4941 613.968 78.9961 613.696 83.6881H609.82C610.092 77.9081 611.928 73.5901 615.328 70.7341C618.796 67.8101 623.692 66.3481 630.016 66.3481C636.34 66.3481 640.93 67.6061 643.786 70.1221C646.71 72.5701 648.172 75.8001 648.172 79.8121V110.31C648.172 111.058 648.172 111.806 648.172 112.554C648.24 113.302 648.376 113.982 648.58 114.594C648.784 115.206 649.124 115.716 649.6 116.124C650.076 116.464 650.756 116.634 651.64 116.634C652.32 116.634 653.272 116.532 654.496 116.328V119.592C653.476 119.864 652.422 120 651.334 120C649.77 120 648.512 119.796 647.56 119.388C646.676 118.98 645.996 118.436 645.52 117.756C645.044 117.076 644.704 116.294 644.5 115.41C644.364 114.458 644.296 113.438 644.296 112.35V109.596ZM644.296 90.2161C643.344 91.3721 641.882 92.1541 639.91 92.5621C638.006 92.9701 635.864 93.2761 633.484 93.4801L626.956 94.0921C625.052 94.2961 623.148 94.6021 621.244 95.0101C619.34 95.3501 617.606 95.9621 616.042 96.8461C614.546 97.7301 613.322 98.9541 612.37 100.518C611.418 102.014 610.942 103.986 610.942 106.434C610.942 110.31 612.166 113.2 614.614 115.104C617.062 116.94 620.428 117.858 624.712 117.858C629.132 117.858 632.634 117.076 635.218 115.512C637.802 113.88 639.774 112.044 641.134 110.004C642.494 107.896 643.344 105.89 643.684 103.986C644.092 102.014 644.296 100.688 644.296 100.008V90.2161ZM671.004 47.1721V120H667.128V47.1721H671.004ZM688.223 92.3581H711.989V68.5921H715.865V92.3581H739.631V96.2341H715.865V120H711.989V96.2341H688.223V92.3581ZM413.426 141.172H417.914V214H413.426V141.172ZM435.74 161.572H439.616V172.792H439.82C440.5 170.82 441.452 169.086 442.676 167.59C443.968 166.026 445.43 164.7 447.062 163.612C448.762 162.524 450.598 161.708 452.57 161.164C454.542 160.62 456.548 160.348 458.588 160.348C461.648 160.348 464.232 160.722 466.34 161.47C468.516 162.218 470.284 163.204 471.644 164.428C473.004 165.652 474.058 167.046 474.806 168.61C475.622 170.106 476.2 171.636 476.54 173.2C476.88 174.764 477.084 176.294 477.152 177.79C477.22 179.218 477.254 180.476 477.254 181.564V214H473.378V180.85C473.378 179.558 473.276 177.926 473.072 175.954C472.868 173.982 472.256 172.112 471.236 170.344C470.284 168.508 468.788 166.944 466.748 165.652C464.776 164.36 462.022 163.714 458.486 163.714C455.494 163.714 452.842 164.258 450.53 165.346C448.218 166.434 446.246 167.964 444.614 169.936C442.982 171.84 441.724 174.152 440.84 176.872C440.024 179.524 439.616 182.448 439.616 185.644V214H435.74V161.572ZM513.607 164.938H502.183V201.556C502.183 203.664 502.421 205.33 502.897 206.554C503.373 207.778 504.087 208.73 505.039 209.41C506.059 210.022 507.249 210.396 508.609 210.532C510.037 210.668 511.669 210.702 513.505 210.634V214C511.533 214.136 509.595 214.136 507.691 214C505.855 213.796 504.223 213.286 502.795 212.47C501.367 211.586 500.211 210.294 499.327 208.594C498.511 206.894 498.171 204.548 498.307 201.556V164.938H488.617V161.572H498.307V145.252H502.183V161.572H513.607V164.938ZM526.557 188.296V188.908C526.557 191.968 526.965 194.892 527.781 197.68C528.597 200.468 529.787 202.916 531.351 205.024C532.983 207.132 534.989 208.798 537.369 210.022C539.817 211.246 542.639 211.858 545.835 211.858C551.071 211.858 555.219 210.498 558.279 207.778C561.339 204.99 563.447 201.148 564.603 196.252H568.479C567.323 202.372 564.807 207.064 560.931 210.328C557.123 213.592 552.057 215.224 545.733 215.224C541.857 215.224 538.457 214.544 535.533 213.184C532.677 211.756 530.263 209.852 528.291 207.472C526.387 205.024 524.959 202.168 524.007 198.904C523.055 195.572 522.579 192.002 522.579 188.194C522.579 184.522 523.055 181.02 524.007 177.688C525.027 174.288 526.523 171.33 528.495 168.814C530.467 166.23 532.915 164.19 535.839 162.694C538.831 161.13 542.333 160.348 546.345 160.348C550.017 160.348 553.247 161.028 556.035 162.388C558.891 163.748 561.271 165.618 563.175 167.998C565.079 170.31 566.507 173.03 567.459 176.158C568.479 179.218 568.989 182.516 568.989 186.052C568.989 186.392 568.955 186.8 568.887 187.276C568.887 187.684 568.887 188.024 568.887 188.296H526.557ZM565.011 184.93C564.875 182.074 564.399 179.388 563.583 176.872C562.767 174.288 561.543 172.044 559.911 170.14C558.347 168.168 556.409 166.604 554.097 165.448C551.853 164.292 549.269 163.714 546.345 163.714C543.217 163.714 540.463 164.326 538.083 165.55C535.703 166.706 533.697 168.27 532.065 170.242C530.433 172.146 529.175 174.39 528.291 176.974C527.407 179.558 526.863 182.21 526.659 184.93H565.011ZM587.491 173.2H587.797C588.273 171.5 589.123 169.902 590.347 168.406C591.639 166.91 593.169 165.618 594.937 164.53C596.773 163.442 598.779 162.626 600.955 162.082C603.199 161.47 605.511 161.198 607.891 161.266V165.142C605.851 164.87 603.505 165.074 600.853 165.754C598.269 166.434 595.787 167.93 593.407 170.242C592.455 171.262 591.605 172.248 590.857 173.2C590.177 174.152 589.599 175.206 589.123 176.362C588.647 177.518 588.273 178.81 588.001 180.238C587.729 181.666 587.559 183.366 587.491 185.338V214H583.615V161.572H587.491V173.2ZM650.49 203.596H650.286C649.674 205.16 648.79 206.656 647.634 208.084C646.478 209.444 645.05 210.668 643.35 211.756C641.718 212.844 639.848 213.694 637.74 214.306C635.632 214.918 633.32 215.224 630.804 215.224C625.228 215.224 620.91 214.034 617.85 211.654C614.79 209.206 613.26 205.466 613.26 200.434C613.26 197.374 613.872 194.892 615.096 192.988C616.32 191.016 617.85 189.486 619.686 188.398C621.59 187.242 623.664 186.426 625.908 185.95C628.22 185.474 630.43 185.134 632.538 184.93L638.556 184.42C641.344 184.216 643.52 183.91 645.084 183.502C646.716 183.026 647.94 182.414 648.756 181.666C649.572 180.85 650.082 179.83 650.286 178.606C650.49 177.382 650.592 175.852 650.592 174.016C650.592 172.588 650.32 171.262 649.776 170.038C649.232 168.814 648.382 167.726 647.226 166.774C646.07 165.822 644.574 165.074 642.738 164.53C640.902 163.986 638.658 163.714 636.006 163.714C631.314 163.714 627.506 164.87 624.582 167.182C621.726 169.494 620.162 172.996 619.89 177.688H616.014C616.286 171.908 618.122 167.59 621.522 164.734C624.99 161.81 629.886 160.348 636.21 160.348C642.534 160.348 647.124 161.606 649.98 164.122C652.904 166.57 654.366 169.8 654.366 173.812V204.31C654.366 205.058 654.366 205.806 654.366 206.554C654.434 207.302 654.57 207.982 654.774 208.594C654.978 209.206 655.318 209.716 655.794 210.124C656.27 210.464 656.95 210.634 657.834 210.634C658.514 210.634 659.466 210.532 660.69 210.328V213.592C659.67 213.864 658.616 214 657.528 214C655.964 214 654.706 213.796 653.754 213.388C652.87 212.98 652.19 212.436 651.714 211.756C651.238 211.076 650.898 210.294 650.694 209.41C650.558 208.458 650.49 207.438 650.49 206.35V203.596ZM650.49 184.216C649.538 185.372 648.076 186.154 646.104 186.562C644.2 186.97 642.058 187.276 639.678 187.48L633.15 188.092C631.246 188.296 629.342 188.602 627.438 189.01C625.534 189.35 623.8 189.962 622.236 190.846C620.74 191.73 619.516 192.954 618.564 194.518C617.612 196.014 617.136 197.986 617.136 200.434C617.136 204.31 618.36 207.2 620.808 209.104C623.256 210.94 626.622 211.858 630.906 211.858C635.326 211.858 638.828 211.076 641.412 209.512C643.996 207.88 645.968 206.044 647.328 204.004C648.688 201.896 649.538 199.89 649.878 197.986C650.286 196.014 650.49 194.688 650.49 194.008V184.216ZM711.878 177.79C711.674 175.478 711.062 173.438 710.042 171.67C709.09 169.902 707.832 168.44 706.268 167.284C704.704 166.128 702.868 165.244 700.76 164.632C698.72 164.02 696.51 163.714 694.13 163.714C690.866 163.714 687.976 164.394 685.46 165.754C682.944 167.046 680.836 168.814 679.136 171.058C677.436 173.234 676.144 175.75 675.26 178.606C674.376 181.394 673.934 184.284 673.934 187.276C673.934 190.812 674.342 194.076 675.158 197.068C675.974 200.06 677.232 202.678 678.932 204.922C680.632 207.098 682.74 208.798 685.256 210.022C687.772 211.246 690.73 211.858 694.13 211.858C696.578 211.858 698.822 211.45 700.862 210.634C702.97 209.818 704.806 208.696 706.37 207.268C708.002 205.84 709.328 204.14 710.348 202.168C711.368 200.128 712.048 197.918 712.388 195.538H716.264C715.856 198.666 715.006 201.454 713.714 203.902C712.422 206.35 710.79 208.424 708.818 210.124C706.846 211.756 704.602 213.014 702.086 213.898C699.57 214.782 696.918 215.224 694.13 215.224C689.846 215.224 686.174 214.476 683.114 212.98C680.122 211.416 677.64 209.342 675.668 206.758C673.764 204.174 672.336 201.216 671.384 197.884C670.5 194.484 670.058 190.948 670.058 187.276C670.058 183.604 670.568 180.136 671.588 176.872C672.676 173.608 674.24 170.752 676.28 168.304C678.32 165.856 680.836 163.918 683.828 162.49C686.82 161.062 690.254 160.348 694.13 160.348C696.986 160.348 699.638 160.722 702.086 161.47C704.602 162.15 706.812 163.204 708.716 164.632C710.688 166.06 712.286 167.896 713.51 170.14C714.734 172.316 715.482 174.866 715.754 177.79H711.878ZM750.271 164.938H738.847V201.556C738.847 203.664 739.085 205.33 739.561 206.554C740.037 207.778 740.751 208.73 741.703 209.41C742.723 210.022 743.913 210.396 745.273 210.532C746.701 210.668 748.333 210.702 750.169 210.634V214C748.197 214.136 746.259 214.136 744.355 214C742.519 213.796 740.887 213.286 739.459 212.47C738.031 211.586 736.875 210.294 735.991 208.594C735.175 206.894 734.835 204.548 734.971 201.556V164.938H725.281V161.572H734.971V145.252H738.847V161.572H750.271V164.938ZM764.003 151.678V141.172H767.879V151.678H764.003ZM764.003 214V161.572H767.879V214H764.003ZM805.906 214H801.112L779.998 161.572H784.486L803.458 209.512H803.662L821.41 161.572H825.694L805.906 214ZM838.463 188.296V188.908C838.463 191.968 838.871 194.892 839.687 197.68C840.503 200.468 841.693 202.916 843.257 205.024C844.889 207.132 846.895 208.798 849.275 210.022C851.723 211.246 854.545 211.858 857.741 211.858C862.977 211.858 867.125 210.498 870.185 207.778C873.245 204.99 875.353 201.148 876.509 196.252H880.385C879.229 202.372 876.713 207.064 872.837 210.328C869.029 213.592 863.963 215.224 857.639 215.224C853.763 215.224 850.363 214.544 847.439 213.184C844.583 211.756 842.169 209.852 840.197 207.472C838.293 205.024 836.865 202.168 835.913 198.904C834.961 195.572 834.485 192.002 834.485 188.194C834.485 184.522 834.961 181.02 835.913 177.688C836.933 174.288 838.429 171.33 840.401 168.814C842.373 166.23 844.821 164.19 847.745 162.694C850.737 161.13 854.239 160.348 858.251 160.348C861.923 160.348 865.153 161.028 867.941 162.388C870.797 163.748 873.177 165.618 875.081 167.998C876.985 170.31 878.413 173.03 879.365 176.158C880.385 179.218 880.895 182.516 880.895 186.052C880.895 186.392 880.861 186.8 880.793 187.276C880.793 187.684 880.793 188.024 880.793 188.296H838.463ZM876.917 184.93C876.781 182.074 876.305 179.388 875.489 176.872C874.673 174.288 873.449 172.044 871.817 170.14C870.253 168.168 868.315 166.604 866.003 165.448C863.759 164.292 861.175 163.714 858.251 163.714C855.123 163.714 852.369 164.326 849.989 165.55C847.609 166.706 845.603 168.27 843.971 170.242C842.339 172.146 841.081 174.39 840.197 176.974C839.313 179.558 838.769 182.21 838.565 184.93H876.917ZM413.426 235.172H437.294C443.822 235.172 449.228 236.192 453.512 238.232C457.864 240.272 461.332 242.992 463.916 246.392C466.5 249.792 468.302 253.668 469.322 258.02C470.41 262.372 470.954 266.86 470.954 271.484C470.954 276.652 470.274 281.48 468.914 285.968C467.622 290.388 465.582 294.23 462.794 297.494C460.006 300.758 456.47 303.342 452.186 305.246C447.97 307.082 442.938 308 437.09 308H413.426V235.172ZM437.498 304.124C440.898 304.124 444.298 303.614 447.698 302.594C451.166 301.506 454.294 299.738 457.082 297.29C459.87 294.774 462.114 291.442 463.814 287.294C465.582 283.078 466.466 277.808 466.466 271.484C466.466 266.52 465.956 262.27 464.936 258.734C463.984 255.198 462.692 252.24 461.06 249.86C459.496 247.412 457.66 245.508 455.552 244.148C453.512 242.72 451.37 241.632 449.126 240.884C446.95 240.136 444.74 239.66 442.496 239.456C440.32 239.184 438.348 239.048 436.58 239.048H417.914V304.124H437.498ZM521.223 297.596H521.019C520.407 299.16 519.523 300.656 518.367 302.084C517.211 303.444 515.783 304.668 514.083 305.756C512.451 306.844 510.581 307.694 508.473 308.306C506.365 308.918 504.053 309.224 501.537 309.224C495.961 309.224 491.643 308.034 488.583 305.654C485.523 303.206 483.993 299.466 483.993 294.434C483.993 291.374 484.605 288.892 485.829 286.988C487.053 285.016 488.583 283.486 490.419 282.398C492.323 281.242 494.397 280.426 496.641 279.95C498.953 279.474 501.163 279.134 503.271 278.93L509.289 278.42C512.077 278.216 514.253 277.91 515.817 277.502C517.449 277.026 518.673 276.414 519.489 275.666C520.305 274.85 520.815 273.83 521.019 272.606C521.223 271.382 521.325 269.852 521.325 268.016C521.325 266.588 521.053 265.262 520.509 264.038C519.965 262.814 519.115 261.726 517.959 260.774C516.803 259.822 515.307 259.074 513.471 258.53C511.635 257.986 509.391 257.714 506.739 257.714C502.047 257.714 498.239 258.87 495.315 261.182C492.459 263.494 490.895 266.996 490.623 271.688H486.747C487.019 265.908 488.855 261.59 492.255 258.734C495.723 255.81 500.619 254.348 506.943 254.348C513.267 254.348 517.857 255.606 520.713 258.122C523.637 260.57 525.099 263.8 525.099 267.812V298.31C525.099 299.058 525.099 299.806 525.099 300.554C525.167 301.302 525.303 301.982 525.507 302.594C525.711 303.206 526.051 303.716 526.527 304.124C527.003 304.464 527.683 304.634 528.567 304.634C529.247 304.634 530.199 304.532 531.423 304.328V307.592C530.403 307.864 529.349 308 528.261 308C526.697 308 525.439 307.796 524.487 307.388C523.603 306.98 522.923 306.436 522.447 305.756C521.971 305.076 521.631 304.294 521.427 303.41C521.291 302.458 521.223 301.438 521.223 300.35V297.596ZM521.223 278.216C520.271 279.372 518.809 280.154 516.837 280.562C514.933 280.97 512.791 281.276 510.411 281.48L503.883 282.092C501.979 282.296 500.075 282.602 498.171 283.01C496.267 283.35 494.533 283.962 492.969 284.846C491.473 285.73 490.249 286.954 489.297 288.518C488.345 290.014 487.869 291.986 487.869 294.434C487.869 298.31 489.093 301.2 491.541 303.104C493.989 304.94 497.355 305.858 501.639 305.858C506.059 305.858 509.561 305.076 512.145 303.512C514.729 301.88 516.701 300.044 518.061 298.004C519.421 295.896 520.271 293.89 520.611 291.986C521.019 290.014 521.223 288.688 521.223 288.008V278.216ZM562.415 258.938H550.991V295.556C550.991 297.664 551.229 299.33 551.705 300.554C552.181 301.778 552.895 302.73 553.847 303.41C554.867 304.022 556.057 304.396 557.417 304.532C558.845 304.668 560.477 304.702 562.313 304.634V308C560.341 308.136 558.403 308.136 556.499 308C554.663 307.796 553.031 307.286 551.603 306.47C550.175 305.586 549.019 304.294 548.135 302.594C547.319 300.894 546.979 298.548 547.115 295.556V258.938H537.425V255.572H547.115V239.252H550.991V255.572H562.415V258.938ZM610.012 297.596H609.808C609.196 299.16 608.312 300.656 607.156 302.084C606 303.444 604.572 304.668 602.872 305.756C601.24 306.844 599.37 307.694 597.262 308.306C595.154 308.918 592.842 309.224 590.326 309.224C584.75 309.224 580.432 308.034 577.372 305.654C574.312 303.206 572.782 299.466 572.782 294.434C572.782 291.374 573.394 288.892 574.618 286.988C575.842 285.016 577.372 283.486 579.208 282.398C581.112 281.242 583.186 280.426 585.43 279.95C587.742 279.474 589.952 279.134 592.06 278.93L598.078 278.42C600.866 278.216 603.042 277.91 604.606 277.502C606.238 277.026 607.462 276.414 608.278 275.666C609.094 274.85 609.604 273.83 609.808 272.606C610.012 271.382 610.114 269.852 610.114 268.016C610.114 266.588 609.842 265.262 609.298 264.038C608.754 262.814 607.904 261.726 606.748 260.774C605.592 259.822 604.096 259.074 602.26 258.53C600.424 257.986 598.18 257.714 595.528 257.714C590.836 257.714 587.028 258.87 584.104 261.182C581.248 263.494 579.684 266.996 579.412 271.688H575.536C575.808 265.908 577.644 261.59 581.044 258.734C584.512 255.81 589.408 254.348 595.732 254.348C602.056 254.348 606.646 255.606 609.502 258.122C612.426 260.57 613.888 263.8 613.888 267.812V298.31C613.888 299.058 613.888 299.806 613.888 300.554C613.956 301.302 614.092 301.982 614.296 302.594C614.5 303.206 614.84 303.716 615.316 304.124C615.792 304.464 616.472 304.634 617.356 304.634C618.036 304.634 618.988 304.532 620.212 304.328V307.592C619.192 307.864 618.138 308 617.05 308C615.486 308 614.228 307.796 613.276 307.388C612.392 306.98 611.712 306.436 611.236 305.756C610.76 305.076 610.42 304.294 610.216 303.41C610.08 302.458 610.012 301.438 610.012 300.35V297.596ZM610.012 278.216C609.06 279.372 607.598 280.154 605.626 280.562C603.722 280.97 601.58 281.276 599.2 281.48L592.672 282.092C590.768 282.296 588.864 282.602 586.96 283.01C585.056 283.35 583.322 283.962 581.758 284.846C580.262 285.73 579.038 286.954 578.086 288.518C577.134 290.014 576.658 291.986 576.658 294.434C576.658 298.31 577.882 301.2 580.33 303.104C582.778 304.94 586.144 305.858 590.428 305.858C594.848 305.858 598.35 305.076 600.934 303.512C603.518 301.88 605.49 300.044 606.85 298.004C608.21 295.896 609.06 293.89 609.4 291.986C609.808 290.014 610.012 288.688 610.012 288.008V278.216Z" fill="black"/>
<path fill-rule="evenodd" clip-rule="evenodd" d="M179.5 359C278.635 359 359 278.635 359 179.5C359 80.3649 278.635 0 179.5 0C80.3649 0 0 80.3649 0 179.5C0 278.635 80.3649 359 179.5 359Z" fill="#E23232"/>
<path fill-rule="evenodd" clip-rule="evenodd" d="M179.5 341C268.694 341 341 268.694 341 179.5C341 90.306 268.694 18 179.5 18C90.306 18 18 90.306 18 179.5C18 268.694 90.306 341 179.5 341Z" fill="#E23232" stroke="white" stroke-width="7"/>
<path d="M162.158 71.906L135.332 143H124.622L97.7958 71.906H107.69L130.028 133.208L152.366 71.906H162.158ZM188.617 71.906V143H179.335V71.906H188.617ZM233.979 143.714C229.287 143.714 225.071 142.898 221.331 141.266C217.659 139.566 214.769 137.254 212.661 134.33C210.553 131.338 209.465 127.904 209.397 124.028H219.291C219.631 127.36 220.991 130.182 223.371 132.494C225.819 134.738 229.355 135.86 233.979 135.86C238.399 135.86 241.867 134.772 244.383 132.596C246.967 130.352 248.259 127.496 248.259 124.028C248.259 121.308 247.511 119.098 246.015 117.398C244.519 115.698 242.649 114.406 240.405 113.522C238.161 112.638 235.135 111.686 231.327 110.666C226.635 109.442 222.861 108.218 220.005 106.994C217.217 105.77 214.803 103.866 212.763 101.282C210.791 98.63 209.805 95.094 209.805 90.674C209.805 86.798 210.791 83.364 212.763 80.372C214.735 77.38 217.489 75.068 221.025 73.436C224.629 71.804 228.743 70.988 233.367 70.988C240.031 70.988 245.471 72.654 249.687 75.986C253.971 79.318 256.385 83.738 256.929 89.246H246.729C246.389 86.526 244.961 84.146 242.445 82.106C239.929 79.998 236.597 78.944 232.449 78.944C228.573 78.944 225.411 79.964 222.963 82.004C220.515 83.976 219.291 86.764 219.291 90.368C219.291 92.952 220.005 95.06 221.433 96.692C222.929 98.324 224.731 99.582 226.839 100.466C229.015 101.282 232.041 102.234 235.917 103.322C240.609 104.614 244.383 105.906 247.239 107.198C250.095 108.422 252.543 110.36 254.583 113.012C256.623 115.596 257.643 119.132 257.643 123.62C257.643 127.088 256.725 130.352 254.889 133.412C253.053 136.472 250.333 138.954 246.729 140.858C243.125 142.762 238.875 143.714 233.979 143.714ZM134.124 155.906V227H124.842V194.768H88.6321V227H79.3501V155.906H88.6321V187.118H124.842V155.906H134.124ZM166.051 155.906V200.888C166.051 207.212 167.581 211.904 170.641 214.964C173.769 218.024 178.087 219.554 183.595 219.554C189.035 219.554 193.285 218.024 196.345 214.964C199.473 211.904 201.037 207.212 201.037 200.888V155.906H210.319V200.786C210.319 206.702 209.129 211.7 206.749 215.78C204.369 219.792 201.139 222.784 197.059 224.756C193.047 226.728 188.525 227.714 183.493 227.714C178.461 227.714 173.905 226.728 169.825 224.756C165.813 222.784 162.617 219.792 160.237 215.78C157.925 211.7 156.769 206.702 156.769 200.786V155.906H166.051ZM268.401 190.382C270.985 190.79 273.331 191.844 275.439 193.544C277.615 195.244 279.315 197.352 280.539 199.868C281.831 202.384 282.477 205.07 282.477 207.926C282.477 211.53 281.559 214.794 279.723 217.718C277.887 220.574 275.201 222.852 271.665 224.552C268.197 226.184 264.083 227 259.323 227H232.803V155.906H258.303C263.131 155.906 267.245 156.722 270.645 158.354C274.045 159.918 276.595 162.06 278.295 164.78C279.995 167.5 280.845 170.56 280.845 173.96C280.845 178.176 279.689 181.678 277.377 184.466C275.133 187.186 272.141 189.158 268.401 190.382ZM242.085 186.608H257.691C262.043 186.608 265.409 185.588 267.789 183.548C270.169 181.508 271.359 178.686 271.359 175.082C271.359 171.478 270.169 168.656 267.789 166.616C265.409 164.576 261.975 163.556 257.487 163.556H242.085V186.608ZM258.507 219.35C263.131 219.35 266.735 218.262 269.319 216.086C271.903 213.91 273.195 210.884 273.195 207.008C273.195 203.064 271.835 199.97 269.115 197.726C266.395 195.414 262.757 194.258 258.201 194.258H242.085V219.35H258.507Z" fill="white"/>
<path d="M86.8621 248.03V261.23C86.8621 263.31 87.3521 264.85 88.3321 265.85C89.3321 266.85 90.6921 267.35 92.4121 267.35C94.1321 267.35 95.4721 266.86 96.4321 265.88C97.4121 264.88 97.9021 263.33 97.9021 261.23V248.03H100.002V261.2C100.002 263.86 99.2921 265.86 97.8721 267.2C96.4721 268.54 94.6421 269.21 92.3821 269.21C90.1221 269.21 88.2821 268.54 86.8621 267.2C85.4621 265.86 84.7621 263.86 84.7621 261.2V248.03H86.8621ZM112.866 252.32C114.826 252.32 116.426 252.93 117.666 254.15C118.906 255.35 119.526 257.1 119.526 259.4V269H117.456V259.64C117.456 257.86 117.006 256.5 116.106 255.56C115.226 254.62 114.016 254.15 112.476 254.15C110.896 254.15 109.636 254.65 108.696 255.65C107.756 256.65 107.286 258.12 107.286 260.06V269H105.186V252.62H107.286V255.41C107.806 254.41 108.556 253.65 109.536 253.13C110.516 252.59 111.626 252.32 112.866 252.32ZM125.721 249.53C125.301 249.53 124.941 249.38 124.641 249.08C124.341 248.78 124.191 248.41 124.191 247.97C124.191 247.53 124.341 247.17 124.641 246.89C124.941 246.59 125.301 246.44 125.721 246.44C126.141 246.44 126.501 246.59 126.801 246.89C127.101 247.17 127.251 247.53 127.251 247.97C127.251 248.41 127.101 248.78 126.801 249.08C126.501 249.38 126.141 249.53 125.721 249.53ZM126.771 252.62V269H124.671V252.62H126.771ZM137.846 266.96L143.366 252.62H145.586L139.016 269H136.646L130.076 252.62H132.326L137.846 266.96ZM163.752 259.97C163.752 260.69 163.732 261.24 163.692 261.62H150.102C150.162 262.86 150.462 263.92 151.002 264.8C151.542 265.68 152.252 266.35 153.132 266.81C154.012 267.25 154.972 267.47 156.012 267.47C157.372 267.47 158.512 267.14 159.432 266.48C160.372 265.82 160.992 264.93 161.292 263.81H163.512C163.112 265.41 162.252 266.72 160.932 267.74C159.632 268.74 157.992 269.24 156.012 269.24C154.472 269.24 153.092 268.9 151.872 268.22C150.652 267.52 149.692 266.54 148.992 265.28C148.312 264 147.972 262.51 147.972 260.81C147.972 259.11 148.312 257.62 148.992 256.34C149.672 255.06 150.622 254.08 151.842 253.4C153.062 252.72 154.452 252.38 156.012 252.38C157.572 252.38 158.932 252.72 160.092 253.4C161.272 254.08 162.172 255 162.792 256.16C163.432 257.3 163.752 258.57 163.752 259.97ZM161.622 259.91C161.642 258.69 161.392 257.65 160.872 256.79C160.372 255.93 159.682 255.28 158.802 254.84C157.922 254.4 156.962 254.18 155.922 254.18C154.362 254.18 153.032 254.68 151.932 255.68C150.832 256.68 150.222 258.09 150.102 259.91H161.622ZM170.194 255.53C170.654 254.51 171.354 253.72 172.294 253.16C173.254 252.6 174.424 252.32 175.804 252.32V254.51H175.234C173.714 254.51 172.494 254.92 171.574 255.74C170.654 256.56 170.194 257.93 170.194 259.85V269H168.094V252.62H170.194V255.53ZM185.103 269.24C183.223 269.24 181.683 268.81 180.483 267.95C179.303 267.07 178.643 265.88 178.503 264.38H180.663C180.763 265.3 181.193 266.05 181.953 266.63C182.733 267.19 183.773 267.47 185.073 267.47C186.213 267.47 187.103 267.2 187.743 266.66C188.403 266.12 188.733 265.45 188.733 264.65C188.733 264.09 188.553 263.63 188.193 263.27C187.833 262.91 187.373 262.63 186.813 262.43C186.273 262.21 185.533 261.98 184.593 261.74C183.373 261.42 182.383 261.1 181.623 260.78C180.863 260.46 180.213 259.99 179.673 259.37C179.153 258.73 178.893 257.88 178.893 256.82C178.893 256.02 179.133 255.28 179.613 254.6C180.093 253.92 180.773 253.38 181.653 252.98C182.533 252.58 183.533 252.38 184.653 252.38C186.413 252.38 187.833 252.83 188.913 253.73C189.993 254.61 190.573 255.83 190.653 257.39H188.553C188.493 256.43 188.113 255.66 187.413 255.08C186.733 254.48 185.793 254.18 184.593 254.18C183.533 254.18 182.673 254.43 182.013 254.93C181.353 255.43 181.023 256.05 181.023 256.79C181.023 257.43 181.213 257.96 181.593 258.38C181.993 258.78 182.483 259.1 183.063 259.34C183.643 259.56 184.423 259.81 185.403 260.09C186.583 260.41 187.523 260.72 188.223 261.02C188.923 261.32 189.523 261.76 190.023 262.34C190.523 262.92 190.783 263.69 190.803 264.65C190.803 265.53 190.563 266.32 190.083 267.02C189.603 267.7 188.933 268.24 188.073 268.64C187.213 269.04 186.223 269.24 185.103 269.24ZM196.306 249.53C195.886 249.53 195.526 249.38 195.226 249.08C194.926 248.78 194.776 248.41 194.776 247.97C194.776 247.53 194.926 247.17 195.226 246.89C195.526 246.59 195.886 246.44 196.306 246.44C196.726 246.44 197.086 246.59 197.386 246.89C197.686 247.17 197.836 247.53 197.836 247.97C197.836 248.41 197.686 248.78 197.386 249.08C197.086 249.38 196.726 249.53 196.306 249.53ZM197.356 252.62V269H195.256V252.62H197.356ZM205.342 254.39V264.56C205.342 265.56 205.532 266.25 205.912 266.63C206.292 267.01 206.962 267.2 207.922 267.2H209.842V269H207.592C206.112 269 205.012 268.66 204.292 267.98C203.572 267.28 203.212 266.14 203.212 264.56V254.39H200.932V252.62H203.212V248.51H205.342V252.62H209.842V254.39H205.342ZM227.305 252.62L217.585 276.71H215.395L218.575 268.91L211.855 252.62H214.165L219.745 266.6L225.145 252.62H227.305ZM244.995 269.27C243.615 269.27 242.395 268.99 241.335 268.43C240.295 267.85 239.485 267.05 238.905 266.03C238.325 264.99 238.035 263.79 238.035 262.43C238.035 260.57 238.465 258.87 239.325 257.33C240.185 255.77 241.365 254.54 242.865 253.64C244.385 252.74 246.075 252.29 247.935 252.29C249.315 252.29 250.535 252.58 251.595 253.16C252.675 253.72 253.505 254.52 254.085 255.56C254.685 256.58 254.985 257.78 254.985 259.16C254.985 261.02 254.545 262.72 253.665 264.26C252.785 265.8 251.585 267.02 250.065 267.92C248.545 268.82 246.855 269.27 244.995 269.27ZM245.325 266.96C246.625 266.96 247.795 266.61 248.835 265.91C249.875 265.19 250.685 264.25 251.265 263.09C251.865 261.91 252.165 260.65 252.165 259.31C252.165 257.79 251.725 256.63 250.845 255.83C249.965 255.01 248.865 254.6 247.545 254.6C246.245 254.6 245.085 254.96 244.065 255.68C243.045 256.38 242.255 257.32 241.695 258.5C241.135 259.68 240.855 260.95 240.855 262.31C240.855 263.79 241.275 264.94 242.115 265.76C242.955 266.56 244.025 266.96 245.325 266.96ZM267.625 248.36C266.405 248.36 265.505 248.6 264.925 249.08C264.365 249.54 263.995 250.31 263.815 251.39L263.605 252.56H267.055L266.665 254.81H263.215L260.695 269H257.965L260.455 254.81H258.355L258.745 252.56H260.845L261.055 251.39C261.395 249.55 262.115 248.21 263.215 247.37C264.315 246.51 265.915 246.08 268.015 246.08L267.625 248.36ZM101.751 280.74V288.57H109.701V290.31H101.751V298.26H110.601V300H99.651V279H110.601V280.74H101.751ZM114.279 291.78C114.279 290.1 114.619 288.63 115.299 287.37C115.979 286.09 116.909 285.11 118.089 284.43C119.289 283.73 120.639 283.38 122.139 283.38C123.579 283.38 124.879 283.73 126.039 284.43C127.199 285.13 128.049 286.04 128.589 287.16V277.8H130.689V300H128.589V296.34C128.089 297.48 127.269 298.42 126.129 299.16C124.989 299.88 123.649 300.24 122.109 300.24C120.609 300.24 119.259 299.89 118.059 299.19C116.879 298.49 115.949 297.5 115.269 296.22C114.609 294.94 114.279 293.46 114.279 291.78ZM128.589 291.81C128.589 290.49 128.319 289.33 127.779 288.33C127.239 287.33 126.499 286.56 125.559 286.02C124.639 285.48 123.619 285.21 122.499 285.21C121.339 285.21 120.299 285.47 119.379 285.99C118.459 286.51 117.729 287.27 117.189 288.27C116.669 289.25 116.409 290.42 116.409 291.78C116.409 293.12 116.669 294.3 117.189 295.32C117.729 296.32 118.459 297.09 119.379 297.63C120.299 298.15 121.339 298.41 122.499 298.41C123.619 298.41 124.639 298.14 125.559 297.6C126.499 297.06 127.239 296.29 127.779 295.29C128.319 294.29 128.589 293.13 128.589 291.81ZM137.033 280.53C136.613 280.53 136.253 280.38 135.953 280.08C135.653 279.78 135.503 279.41 135.503 278.97C135.503 278.53 135.653 278.17 135.953 277.89C136.253 277.59 136.613 277.44 137.033 277.44C137.453 277.44 137.813 277.59 138.113 277.89C138.413 278.17 138.563 278.53 138.563 278.97C138.563 279.41 138.413 279.78 138.113 280.08C137.813 280.38 137.453 280.53 137.033 280.53ZM138.083 283.62V300H135.983V283.62H138.083ZM151.018 283.32C152.978 283.32 154.578 283.93 155.818 285.15C157.058 286.35 157.678 288.1 157.678 290.4V300H155.608V290.64C155.608 288.86 155.158 287.5 154.258 286.56C153.378 285.62 152.168 285.15 150.628 285.15C149.048 285.15 147.788 285.65 146.848 286.65C145.908 287.65 145.438 289.12 145.438 291.06V300H143.338V283.62H145.438V286.41C145.958 285.41 146.708 284.65 147.688 284.13C148.668 283.59 149.778 283.32 151.018 283.32ZM164.893 287.25C165.433 286.11 166.263 285.18 167.383 284.46C168.523 283.74 169.863 283.38 171.403 283.38C172.903 283.38 174.243 283.73 175.423 284.43C176.603 285.11 177.523 286.09 178.183 287.37C178.863 288.63 179.203 290.1 179.203 291.78C179.203 293.46 178.863 294.94 178.183 296.22C177.523 297.5 176.593 298.49 175.393 299.19C174.213 299.89 172.883 300.24 171.403 300.24C169.843 300.24 168.493 299.89 167.353 299.19C166.233 298.47 165.413 297.54 164.893 296.4V300H162.823V277.8H164.893V287.25ZM177.073 291.78C177.073 290.42 176.803 289.25 176.263 288.27C175.743 287.27 175.023 286.51 174.103 285.99C173.183 285.47 172.143 285.21 170.983 285.21C169.863 285.21 168.833 285.48 167.893 286.02C166.973 286.56 166.243 287.33 165.703 288.33C165.163 289.33 164.893 290.49 164.893 291.81C164.893 293.13 165.163 294.29 165.703 295.29C166.243 296.29 166.973 297.06 167.893 297.6C168.833 298.14 169.863 298.41 170.983 298.41C172.143 298.41 173.183 298.15 174.103 297.63C175.023 297.09 175.743 296.32 176.263 295.32C176.803 294.3 177.073 293.12 177.073 291.78ZM197.757 283.62V300H195.657V297.12C195.177 298.14 194.437 298.92 193.437 299.46C192.437 300 191.317 300.27 190.077 300.27C188.117 300.27 186.517 299.67 185.277 298.47C184.037 297.25 183.417 295.49 183.417 293.19V283.62H185.487V292.95C185.487 294.73 185.927 296.09 186.807 297.03C187.707 297.97 188.927 298.44 190.467 298.44C192.047 298.44 193.307 297.94 194.247 296.94C195.187 295.94 195.657 294.47 195.657 292.53V283.62H197.757ZM205.151 286.53C205.611 285.51 206.311 284.72 207.251 284.16C208.211 283.6 209.381 283.32 210.761 283.32V285.51H210.191C208.671 285.51 207.451 285.92 206.531 286.74C205.611 287.56 205.151 288.93 205.151 290.85V300H203.051V283.62H205.151V286.53ZM221.291 283.38C222.831 283.38 224.171 283.74 225.311 284.46C226.451 285.18 227.271 286.09 227.771 287.19V283.62H229.871V300.42C229.871 301.92 229.541 303.25 228.881 304.41C228.241 305.57 227.341 306.46 226.181 307.08C225.021 307.72 223.701 308.04 222.221 308.04C220.121 308.04 218.371 307.54 216.971 306.54C215.591 305.54 214.731 304.18 214.391 302.46H216.461C216.821 303.6 217.501 304.51 218.501 305.19C219.521 305.87 220.761 306.21 222.221 306.21C223.281 306.21 224.231 305.98 225.071 305.52C225.911 305.08 226.571 304.42 227.051 303.54C227.531 302.66 227.771 301.62 227.771 300.42V296.37C227.251 297.49 226.421 298.42 225.281 299.16C224.161 299.88 222.831 300.24 221.291 300.24C219.791 300.24 218.441 299.89 217.241 299.19C216.061 298.49 215.131 297.5 214.451 296.22C213.791 294.94 213.461 293.46 213.461 291.78C213.461 290.1 213.791 288.63 214.451 287.37C215.131 286.09 216.061 285.11 217.241 284.43C218.441 283.73 219.791 283.38 221.291 283.38ZM227.771 291.81C227.771 290.49 227.501 289.33 226.961 288.33C226.421 287.33 225.681 286.56 224.741 286.02C223.821 285.48 222.801 285.21 221.681 285.21C220.521 285.21 219.481 285.47 218.561 285.99C217.641 286.51 216.911 287.27 216.371 288.27C215.851 289.25 215.591 290.42 215.591 291.78C215.591 293.12 215.851 294.3 216.371 295.32C216.911 296.32 217.641 297.09 218.561 297.63C219.481 298.15 220.521 298.41 221.681 298.41C222.801 298.41 223.821 298.14 224.741 297.6C225.681 297.06 226.421 296.29 226.961 295.29C227.501 294.29 227.771 293.13 227.771 291.81ZM242.965 283.32C244.205 283.32 245.315 283.58 246.295 284.1C247.295 284.62 248.075 285.42 248.635 286.5C249.215 287.56 249.505 288.86 249.505 290.4V300H247.435V290.64C247.435 288.86 246.985 287.5 246.085 286.56C245.205 285.62 243.995 285.15 242.455 285.15C240.875 285.15 239.615 285.65 238.675 286.65C237.735 287.65 237.265 289.12 237.265 291.06V300H235.165V277.8H237.265V286.41C237.785 285.43 238.545 284.67 239.545 284.13C240.565 283.59 241.705 283.32 242.965 283.32Z" fill="white"/>
</svg>
